<?xml version="1.0" encoding="UTF-8" standalone="no"?>
<svg viewBox="0 0 1024 500" version="1.1" id="svg188" width="1024" height="500" xmlns="http://www.w3.org/2000/svg" xmlns:svg="http://www.w3.org/2000/svg">
  <defs id="defs192">
    <filter style="color-interpolation-filters:sRGB" id="filter910" x="-0.12586635" y="-0.11013306" width="1.2517327" height="1.2202661">
      <feGaussianBlur stdDeviation="13.34506" id="feGaussianBlur912" />
    </filter>
  </defs>
  <path id="rect1108" style="display:none;fill:#ff0000;stroke-width:0;stroke-linejoin:bevel;stroke-miterlimit:3.6;stroke-dasharray:none;stroke-opacity:0.648276;paint-order:fill markers stroke;stop-color:#000000" d="M 0,0 H 512 V 512 H 0 Z" />
  <path style="display:none;opacity:1;mix-blend-mode:normal;fill:#0000ff;stroke:none;stroke-width:0;stroke-linecap:butt;stroke-linejoin:miter;stroke-dasharray:none;stroke-opacity:1" d="M 0,512 512,0 v 512 z" id="path1216" />
  <path id="rect1358" style="opacity:1;fill:#ff0000;stroke-width:0;stroke-linejoin:bevel;stroke-miterlimit:3.6;stroke-opacity:0.648276;paint-order:fill markers stroke;stop-color:#000000" d="M 0,0 H 512 V 500 H 0 Z" />
  <path id="rect1360" style="opacity:1;fill:#0000ff;stroke-width:0;stroke-linejoin:bevel;stroke-miterlimit:3.6;stroke-opacity:0.648276;paint-order:fill markers stroke;stop-color:#000000" d="m 512,0 h 512 V 500 H 512 Z" />
  <path d="M 512,250 A 72.703297,72.703297 0 1 1 512,104.59341 72.703297,72.703297 0 1 1 512,250 Z m -8.46312,58.61703 -10.56469,-17.60783 c -3.63517,-6.07754 0.73839,-13.74547 7.78151,-13.74547 H 512 523.18949 c 7.04314,0 11.41669,7.72473 7.78153,13.74547 l -10.5647,17.60783 18.97102,70.37452 20.44779,-83.43839 c 1.13599,-4.60076 5.56635,-7.61113 10.16711,-6.41834 39.81641,9.99671 69.23853,46.00755 69.23853,88.83434 0,9.65591 -7.83832,17.43743 -17.43743,17.43743 h -74.86168 c -1.19278,0 -2.27197,-0.22719 -3.29437,-0.62479 l 0.1704,0.62479 h -63.61538 l 0.1704,-0.62479 c -1.0224,0.3976 -2.15838,0.62479 -3.29437,0.62479 h -74.86167 c -9.59911,0 -17.43744,-7.83832 -17.43744,-17.43743 0,-42.88358 29.47892,-78.89444 69.23853,-88.83434 4.60076,-1.13599 9.03112,1.87438 10.16711,6.41834 l 20.44779,83.43839 18.97102,-70.37452 z" id="path908" style="fill:#4d4d4d;stroke-width:0.567995;filter:url(#filter910)" />
  <path d="M 512,250 A 72.703297,72.703297 0 1 1 512,104.59341 72.703297,72.703297 0 1 1 512,250 Z m -8.46312,58.61703 -10.56469,-17.60783 c -3.63517,-6.07754 0.73839,-13.74547 7.78151,-13.74547 H 512 523.18949 c 7.04314,0 11.41669,7.72473 7.78153,13.74547 l -10.5647,17.60783 18.97102,70.37452 20.44779,-83.43839 c 1.13599,-4.60076 5.56635,-7.61113 10.16711,-6.41834 39.81641,9.99671 69.23853,46.00755 69.23853,88.83434 0,9.65591 -7.83832,17.43743 -17.43743,17.43743 h -74.86168 c -1.19278,0 -2.27197,-0.22719 -3.29437,-0.62479 l 0.1704,0.62479 h -63.61538 l 0.1704,-0.62479 c -1.0224,0.3976 -2.15838,0.62479 -3.29437,0.62479 h -74.86167 c -9.59911,0 -17.43744,-7.83832 -17.43744,-17.43743 0,-42.88358 29.47892,-78.89444 69.23853,-88.83434 4.60076,-1.13599 9.03112,1.87438 10.16711,6.41834 l 20.44779,83.43839 18.97102,-70.37452 z" id="path186" style="opacity:0.799591;fill:#ffffff;stroke:#ffffff;stroke-width:0.566929;stroke-dasharray:none;stroke-opacity:0.648276" />
</svg>
